<?xml version="1.0" encoding="UTF-8" standalone="no"?>
<!-- Created with Inkscape (http://www.inkscape.org/) -->

<svg
   xmlns:dc="http://purl.org/dc/elements/1.1/"
   xmlns:cc="http://creativecommons.org/ns#"
   xmlns:rdf="http://www.w3.org/1999/02/22-rdf-syntax-ns#"
   xmlns:svg="http://www.w3.org/2000/svg"
   xmlns="http://www.w3.org/2000/svg"
   xmlns:sodipodi="http://sodipodi.sourceforge.net/DTD/sodipodi-0.dtd"
   xmlns:inkscape="http://www.inkscape.org/namespaces/inkscape"
   width="189.03918mm"
   height="189.03918mm"
   viewBox="0 0 189.03918 189.03918"
   id="svg10712"
   version="1.1"
   inkscape:version="0.91 r13725"
   sodipodi:docname="191521.svg">
  <defs
     id="defs3">
    <clipPath
       id="clipPath4153"
       clipPathUnits="userSpaceOnUse">
      <path
         inkscape:connector-curvature="0"
         id="path4155"
         d="m 0,935.43 960.01,0 L 960.01,0 0,0 0,935.43 Z" />
    </clipPath>
  </defs>
  <sodipodi:namedview
     inkscape:document-units="mm"
     id="base"
     pagecolor="#ffffff"
     bordercolor="#666666"
     borderopacity="1.0"
     inkscape:pageopacity="0.0"
     inkscape:pageshadow="2"
     inkscape:zoom="0.5"
     inkscape:cx="34.552007"
     inkscape:cy="-43.499418"
     inkscape:current-layer="layer1"
     showgrid="false"
     inkscape:window-width="2048"
     inkscape:window-height="1099"
     inkscape:window-x="-8"
     inkscape:window-y="-8"
     inkscape:window-maximized="1"
     showguides="false"
     inkscape:guide-bbox="true"
     inkscape:object-paths="true"
     inkscape:snap-intersection-paths="true"
     inkscape:object-nodes="true"
     inkscape:snap-smooth-nodes="true"
     inkscape:snap-midpoints="true"
     inkscape:snap-nodes="true"
     inkscape:snap-object-midpoints="true"
     inkscape:snap-center="true"
     inkscape:snap-others="true"
     inkscape:snap-bbox="true"
     fit-margin-top="5"
     fit-margin-right="5"
     fit-margin-bottom="5"
     fit-margin-left="5">
    <sodipodi:guide
       position="94.546573,93.016938"
       orientation="0,1"
       id="guide3338" />
    <sodipodi:guide
       position="94.546573,93.016938"
       orientation="1,0"
       id="guide3340" />
    <sodipodi:guide
       position="114.11136,77.899648"
       orientation="1,0"
       id="guide4196" />
    <sodipodi:guide
       position="94.546573,5.0000041"
       orientation="0,1"
       id="guide4380" />
    <sodipodi:guide
       position="35.771288,40.854418"
       orientation="1,0"
       id="guide4388" />
    <sodipodi:guide
       position="44.936148,104.70827"
       orientation="0,1"
       id="guide4215" />
    <sodipodi:guide
       position="35.771288,49.321078"
       orientation="0,1"
       id="guide4217" />
  </sodipodi:namedview>
  <metadata
     id="metadata4">
    <rdf:RDF>
      <cc:Work
         rdf:about="">
        <dc:format>image/svg+xml</dc:format>
        <dc:type
           rdf:resource="http://purl.org/dc/dcmitype/StillImage" />
        <dc:title></dc:title>
      </cc:Work>
    </rdf:RDF>
  </metadata>
  <g
     inkscape:label="Layer 1"
     inkscape:groupmode="layer"
     id="layer1"
     transform="translate(-10.480408,-23.782516)">
    <g
       id="g4571"
       transform="matrix(0.68201766,-0.7313357,0.7313357,0.68201766,81.32787,-10.317387)"
       inkscape:transform-center-x="9.8384523"
       inkscape:transform-center-y="8.0211163" />
    <g
       id="g4169"
       style="fill:#507400;stroke:#507400"
       transform="translate(7.9022214,-1.1288889)">
      <path
         sodipodi:nodetypes="ccccc"
         inkscape:connector-curvature="0"
         id="rect4480"
         d="m -119.80011,115.53792 6.76183,0 0,10.79146 -13.52365,0 z"
         style="color:#000000;clip-rule:nonzero;display:inline;overflow:visible;visibility:visible;opacity:1;isolation:auto;mix-blend-mode:normal;color-interpolation:sRGB;color-interpolation-filters:linearRGB;solid-color:#000000;solid-opacity:1;fill:#507400;fill-opacity:1;fill-rule:evenodd;stroke:#507400;stroke-width:4.23333359;stroke-linecap:round;stroke-linejoin:round;stroke-miterlimit:4;stroke-dasharray:none;stroke-dashoffset:0;stroke-opacity:1;color-rendering:auto;image-rendering:auto;shape-rendering:auto;text-rendering:auto;enable-background:accumulate" />
      <path
         inkscape:connector-curvature="0"
         id="path4482"
         d="m -119.80011,126.32938 0,7.94234"
         style="color:#000000;clip-rule:nonzero;display:inline;overflow:visible;visibility:visible;opacity:1;isolation:auto;mix-blend-mode:normal;color-interpolation:sRGB;color-interpolation-filters:linearRGB;solid-color:#000000;solid-opacity:1;fill:#507400;fill-opacity:1;fill-rule:evenodd;stroke:#507400;stroke-width:4.23333359;stroke-linecap:round;stroke-linejoin:round;stroke-miterlimit:4;stroke-dasharray:none;stroke-dashoffset:0;stroke-opacity:1;color-rendering:auto;image-rendering:auto;shape-rendering:auto;text-rendering:auto;enable-background:accumulate" />
      <path
         sodipodi:nodetypes="cc"
         inkscape:connector-curvature="0"
         id="path4489"
         d="m -126.56194,126.32938 -9.93795,-30.279974"
         style="color:#000000;clip-rule:nonzero;display:inline;overflow:visible;visibility:visible;opacity:1;isolation:auto;mix-blend-mode:normal;color-interpolation:sRGB;color-interpolation-filters:linearRGB;solid-color:#000000;solid-opacity:1;fill:#507400;fill-opacity:1;fill-rule:evenodd;stroke:#507400;stroke-width:4.23333359;stroke-linecap:round;stroke-linejoin:round;stroke-miterlimit:4;stroke-dasharray:none;stroke-dashoffset:0;stroke-opacity:1;color-rendering:auto;image-rendering:auto;shape-rendering:auto;text-rendering:auto;enable-background:accumulate" />
      <path
         sodipodi:nodetypes="cc"
         inkscape:connector-curvature="0"
         id="path4496"
         d="M -119.80011,115.53792 -136.49989,96.049406"
         style="color:#000000;clip-rule:nonzero;display:inline;overflow:visible;visibility:visible;opacity:1;isolation:auto;mix-blend-mode:normal;color-interpolation:sRGB;color-interpolation-filters:linearRGB;solid-color:#000000;solid-opacity:1;fill:#507400;fill-opacity:1;fill-rule:evenodd;stroke:#507400;stroke-width:4.23333359;stroke-linecap:round;stroke-linejoin:round;stroke-miterlimit:4;stroke-dasharray:none;stroke-dashoffset:0;stroke-opacity:1;color-rendering:auto;image-rendering:auto;shape-rendering:auto;text-rendering:auto;enable-background:accumulate" />
      <path
         inkscape:connector-curvature="0"
         id="path4504"
         d="m -140.29156,104.03186 3.79167,-7.982454"
         style="color:#000000;clip-rule:nonzero;display:inline;overflow:visible;visibility:visible;opacity:1;isolation:auto;mix-blend-mode:normal;color-interpolation:sRGB;color-interpolation-filters:linearRGB;solid-color:#000000;solid-opacity:1;fill:#507400;fill-opacity:1;fill-rule:evenodd;stroke:#507400;stroke-width:4.23333359;stroke-linecap:round;stroke-linejoin:round;stroke-miterlimit:4;stroke-dasharray:none;stroke-dashoffset:0;stroke-opacity:1;color-rendering:auto;image-rendering:auto;shape-rendering:auto;text-rendering:auto;enable-background:accumulate" />
    </g>
    <g
       id="g4173"
       transform="matrix(-1,0,0,1,217.90222,-1.1288889)" />
    <path
       id="path4238"
       style="color:#000000;clip-rule:nonzero;display:inline;overflow:visible;visibility:visible;opacity:1;isolation:auto;mix-blend-mode:normal;color-interpolation:sRGB;color-interpolation-filters:linearRGB;solid-color:#000000;solid-opacity:1;fill:#ffffff;fill-opacity:1;fill-rule:evenodd;stroke:#fdc744;stroke-width:4.23333359;stroke-linecap:round;stroke-linejoin:round;stroke-miterlimit:4;stroke-dasharray:none;stroke-dashoffset:0;stroke-opacity:1;color-rendering:auto;image-rendering:auto;shape-rendering:auto;text-rendering:auto;enable-background:accumulate"
       d="m -74.323377,152.40333 4.75995,0 m -45.607023,12.25964 37.548313,-12.25964 m -48.750823,16.75651 28.312681,0 m 20.438142,-16.75651 0,0 3.29876,0 0,0 -37.557583,26.51288 -3.2896,1e-5 m -6.73025,-14.25325 6.73036,0 0,14.25324 -11.92778,0 z m -13.86283,14.25325 23.67719,0 0,5.78804 -23.67719,0 z"
       inkscape:connector-curvature="0"
       sodipodi:nodetypes="cccccccccccccccccccccc" />
    <rect
       style="color:#000000;clip-rule:nonzero;display:inline;overflow:visible;visibility:visible;opacity:1;isolation:auto;mix-blend-mode:normal;color-interpolation:sRGB;color-interpolation-filters:linearRGB;solid-color:#000000;solid-opacity:1;fill:none;fill-opacity:1;fill-rule:evenodd;stroke:#fdc744;stroke-width:14.99999714;stroke-linecap:round;stroke-linejoin:round;stroke-miterlimit:4;stroke-dasharray:none;stroke-dashoffset:0;stroke-opacity:1;color-rendering:auto;image-rendering:auto;shape-rendering:auto;text-rendering:auto;enable-background:accumulate"
       id="rect4209"
       width="5.890934"
       height="3.1749938"
       x="-126.40115"
       y="187.6535" />
    <g
       id="g4371">
      <circle
         r="89.519592"
         cy="118.30211"
         cx="105"
         id="path8210-0"
         style="fill:#f6511d;stroke:none;stroke-width:4.23333359;stroke-linecap:round;stroke-linejoin:round;stroke-miterlimit:4;stroke-dasharray:none;stroke-opacity:1" />
      <g
         transform="translate(0,1.1381768)"
         id="g4287">
        <g
           transform="translate(0,-6.1863984)"
           id="g4311">
          <path
             inkscape:connector-curvature="0"
             id="path4257"
             transform="translate(7.9022214,-1.1288889)"
             style="color:#000000;clip-rule:nonzero;display:inline;overflow:visible;visibility:visible;opacity:1;isolation:auto;mix-blend-mode:normal;color-interpolation:sRGB;color-interpolation-filters:linearRGB;solid-color:#000000;solid-opacity:1;fill:#ffffff;fill-opacity:1;fill-rule:evenodd;stroke:#ffffff;stroke-width:4.23333359;stroke-linecap:round;stroke-linejoin:round;stroke-miterlimit:4;stroke-dasharray:none;stroke-dashoffset:0;stroke-opacity:1;color-rendering:auto;image-rendering:auto;shape-rendering:auto;text-rendering:auto;enable-background:accumulate"
             d="m 115.94113,111.65394 0,7.94234 m 0,-18.7338 -6.76183,0 0,10.79146 13.52365,0 z" />
          <path
             sodipodi:nodetypes="cccccc"
             inkscape:connector-curvature="0"
             id="path4263"
             style="color:#000000;clip-rule:nonzero;display:inline;overflow:visible;visibility:visible;opacity:1;isolation:auto;mix-blend-mode:normal;color-interpolation:sRGB;color-interpolation-filters:linearRGB;solid-color:#000000;solid-opacity:1;fill:#507400;fill-opacity:1;fill-rule:evenodd;stroke:#ffffff;stroke-width:4.23333359;stroke-linecap:round;stroke-linejoin:round;stroke-miterlimit:4;stroke-dasharray:none;stroke-dashoffset:0;stroke-opacity:1;color-rendering:auto;image-rendering:auto;shape-rendering:auto;text-rendering:auto;enable-background:accumulate"
             d="M 155.27885,89.533421 151.65252,79.82336 M 123.84335,99.733591 151.65252,79.82336 m -21.04734,30.70169 21.04734,-30.70169" />
          <path
             id="path4232"
             style="color:#000000;clip-rule:nonzero;display:inline;overflow:visible;visibility:visible;opacity:1;isolation:auto;mix-blend-mode:normal;color-interpolation:sRGB;color-interpolation-filters:linearRGB;solid-color:#000000;solid-opacity:1;fill:none;fill-opacity:1;fill-rule:evenodd;stroke:#ffffff;stroke-width:4.23333311;stroke-linecap:round;stroke-linejoin:round;stroke-miterlimit:4;stroke-dasharray:none;stroke-dashoffset:0;stroke-opacity:1;color-rendering:auto;image-rendering:auto;shape-rendering:auto;text-rendering:auto;enable-background:accumulate"
             d="m 169.1992,94.053817 -12.43028,21.988533 21.59481,33.39653 m 3.2e-4,0.002 -9.16486,-55.386943 m 3.62241,22.013313 -21.57879,33.37175 m 3.65938,-33.372 19.80215,0 m -23.46185,33.37388 5.52234,-33.37379"
             inkscape:connector-curvature="0" />
          <path
             transform="matrix(0.28222222,0,0,0.28222222,0,5.0482216)"
             id="path4345"
             d="m 646.47567,507.61408 c -10.85387,3.18766 -45.56749,12.88787 -66.07393,12.88787 -24.53829,0 -69.41966,-13.88958 -69.41966,-13.88958"
             style="fill:none;fill-rule:evenodd;stroke:#ffffff;stroke-width:15.00000095;stroke-linecap:round;stroke-linejoin:round;stroke-miterlimit:4;stroke-dasharray:none;stroke-opacity:1"
             inkscape:connector-curvature="0" />
          <path
             transform="matrix(0.28222222,0,0,0.28222222,0,5.0482216)"
             id="path4341"
             d="m 510.98208,506.61237 c 0,0 -44.88133,-13.88963 -69.41962,-13.88963 -24.53825,0 -69.41962,13.88963 -69.41962,13.88963"
             style="fill:none;fill-rule:evenodd;stroke:#ffffff;stroke-width:15.00000095;stroke-linecap:round;stroke-linejoin:round;stroke-miterlimit:4;stroke-dasharray:none;stroke-opacity:1"
             inkscape:connector-curvature="0" />
          <path
             transform="matrix(0.28222222,0,0,0.28222222,0,5.0482216)"
             id="path4339"
             d="m 372.14284,506.61237 c 0,0 -44.88133,13.88958 -69.41962,13.88958 -24.53828,0 -69.41962,-13.88958 -69.41962,-13.88958"
             style="fill:none;fill-rule:evenodd;stroke:#ffffff;stroke-width:15.00000095;stroke-linecap:round;stroke-linejoin:round;stroke-miterlimit:4;stroke-dasharray:none;stroke-opacity:1"
             inkscape:connector-curvature="0" />
          <path
             inkscape:connector-curvature="0"
             id="path4335"
             d="m 65.84346,148.02549 c 0,0 -12.666509,-3.91996 -19.591759,-3.91996 -5.991654,0 -16.280949,2.9343 -18.946264,3.72545"
             style="fill:none;fill-rule:evenodd;stroke:#ffffff;stroke-width:4.23333359;stroke-linecap:round;stroke-linejoin:round;stroke-miterlimit:4;stroke-dasharray:none;stroke-opacity:1" />
          <path
             transform="matrix(0.28222222,0,0,0.28222222,0,5.0482216)"
             id="path4333"
             d="m 632.30707,541.54385 c -15.27567,3.99376 -37.22906,8.96233 -51.90533,8.96233 -24.53829,0 -69.41966,-13.88955 -69.41966,-13.88955"
             style="fill:none;fill-rule:evenodd;stroke:#ffffff;stroke-width:15.00000095;stroke-linecap:round;stroke-linejoin:round;stroke-miterlimit:4;stroke-dasharray:none;stroke-opacity:1"
             inkscape:connector-curvature="0" />
          <path
             transform="matrix(0.28222222,0,0,0.28222222,0,5.0482216)"
             id="path4329"
             d="m 510.98208,536.61663 c 0,0 -44.88133,-13.88959 -69.41962,-13.88959 -24.53825,0 -69.41962,13.88959 -69.41962,13.88959"
             style="fill:none;fill-rule:evenodd;stroke:#ffffff;stroke-width:15.00000095;stroke-linecap:round;stroke-linejoin:round;stroke-miterlimit:4;stroke-dasharray:none;stroke-opacity:1"
             inkscape:connector-curvature="0" />
          <path
             transform="matrix(0.28222222,0,0,0.28222222,0,5.0482216)"
             id="path4327"
             d="m 372.14284,536.61663 c 0,0 -44.88133,13.88955 -69.41962,13.88955 -24.53828,0 -69.41962,-13.88955 -69.41962,-13.88955"
             style="fill:none;fill-rule:evenodd;stroke:#ffffff;stroke-width:15.00000095;stroke-linecap:round;stroke-linejoin:round;stroke-miterlimit:4;stroke-dasharray:none;stroke-opacity:1"
             inkscape:connector-curvature="0" />
          <path
             transform="matrix(0.28222222,0,0,0.28222222,0,5.0482216)"
             id="path4229"
             d="m 233.3036,536.61663 c 0,0 -44.88133,-13.88959 -69.41962,-13.88959 -16.12534,0 -41.03576,5.99817 -56.22135,10.11111"
             style="fill:none;fill-rule:evenodd;stroke:#ffffff;stroke-width:15.00000095;stroke-linecap:round;stroke-linejoin:round;stroke-miterlimit:4;stroke-dasharray:none;stroke-opacity:1"
             inkscape:connector-curvature="0" />
          <path
             id="rect4369"
             style="color:#000000;clip-rule:nonzero;display:inline;overflow:visible;visibility:visible;opacity:1;isolation:auto;mix-blend-mode:normal;color-interpolation:sRGB;color-interpolation-filters:linearRGB;solid-color:#000000;solid-opacity:1;fill:#ffffff;fill-opacity:1;fill-rule:evenodd;stroke:#ffffff;stroke-width:4.2329998;stroke-linecap:round;stroke-linejoin:round;stroke-miterlimit:4;stroke-dasharray:none;stroke-dashoffset:0;stroke-opacity:1;color-rendering:auto;image-rendering:auto;shape-rendering:auto;text-rendering:auto;enable-background:accumulate"
             d="m 50.097901,114.08078 0,-4.48908 -5.76257,1e-5 0,-1.74528 5.994389,0 2.997201,0 2.9972,0 5.9944,0 8.25217,0 1.1e-5,9.22774 -4.727231,0 -2.209489,-2.99339 z"
             inkscape:connector-curvature="0"
             sodipodi:nodetypes="ccccccccccccc" />
          <path
             id="path4489-1"
             style="display:inline;fill:#ffffff;fill-rule:evenodd;stroke:#ffffff;stroke-width:4.23333359;stroke-linecap:round;stroke-linejoin:round;stroke-miterlimit:4;stroke-dasharray:none;stroke-opacity:1"
             d="m 105.02699,139.61047 c 0,0 12.66651,-3.91995 19.59175,-3.91995 1.77987,0 3.93897,0.25893 6.16481,0.6437 l 8.36542,-21.06214 -32.02948,7.28426 -1.36205,3.12591 -44.119269,0 -2.300771,-3.12591 -18.99598,0 5.929001,13.13419 c 6.929331,0.007 19.57305,3.91994 19.57305,3.91994 m 0.006,0.002 c 0.317319,0.0978 12.74901,3.91804 19.585559,3.91804 6.83656,0 19.26825,-3.82019 19.58557,-3.91804 m 23.12834,-21.28995 c 2.33818,9e-5 4.23354,1.89568 4.23333,4.23386 -9e-5,2.33795 -1.89537,4.23321 -4.23333,4.2333 -2.33797,-9e-5 -4.23324,-1.89535 -4.23334,-4.2333 -2.1e-4,-2.33818 1.89515,-4.23377 4.23334,-4.23386 z m -70.90174,9.33699 c 2.337971,1e-4 4.23324,1.89536 4.233341,4.23331 9.1e-5,-2.33795 1.89536,-4.23321 4.233331,-4.23331 2.337968,1e-4 4.233237,1.89536 4.233328,4.23331 1.01e-4,-2.33795 1.89537,-4.23321 4.233342,-4.23331 2.337968,1e-4 4.23324,1.89536 4.23333,4.23331 -9e-5,2.33794 -1.895362,4.23321 -4.23333,4.2333 -2.337972,-9e-5 -4.233241,-1.89536 -4.233342,-4.2333 -9.1e-5,2.33794 -1.89536,4.23321 -4.233328,4.2333 -2.337971,-9e-5 -4.23324,-1.89536 -4.233331,-4.2333 -1.01e-4,2.33794 -1.89537,4.23321 -4.233341,4.2333 -2.33796,-9e-5 -4.233241,-1.89536 -4.233328,-4.2333 8.7e-5,-2.33795 1.895368,-4.23321 4.233328,-4.23331 z"
             inkscape:connector-curvature="0"
             sodipodi:nodetypes="csccccccccccsccccccccccccccccccc" />
        </g>
      </g>
    </g>
  </g>
</svg>
